<svg xmlns="http://www.w3.org/2000/svg" xmlns:xlink="http://www.w3.org/1999/xlink" width="500" zoomAndPan="magnify" viewBox="0 0 375 374.999991" height="500" preserveAspectRatio="xMidYMid meet" version="1.0"><defs><g/></defs><path fill="#00a19a" d="M 187.445312 159.929688 C 174.34375 173 174.34375 194.203125 187.445312 207.277344 C 200.542969 220.347656 221.785156 220.347656 234.882812 207.277344 L 282.324219 159.929688 C 295.421875 146.855469 295.421875 125.65625 282.324219 112.582031 C 269.222656 99.507812 247.980469 99.507812 234.882812 112.582031 Z M 187.445312 159.929688 " fill-opacity="1" fill-rule="nonzero"/><path fill="#304499" d="M 187.445312 159.929688 C 200.542969 146.855469 200.542969 125.65625 187.445312 112.582031 C 174.34375 99.507812 153.101562 99.507812 140.003906 112.582031 L 92.566406 159.929688 C 79.464844 173 79.464844 194.203125 92.566406 207.277344 C 105.664062 220.347656 126.90625 220.347656 140.003906 207.277344 Z M 187.445312 159.929688 " fill-opacity="1" fill-rule="nonzero"/><path fill="#ffb300" d="M 187.445312 207.277344 C 200.542969 220.347656 221.785156 220.347656 234.882812 207.277344 C 247.980469 194.203125 247.980469 173 234.882812 159.929688 L 187.445312 112.582031 C 174.34375 99.507812 153.101562 99.507812 140.003906 112.582031 C 126.90625 125.65625 126.90625 146.855469 140.003906 159.929688 Z M 187.445312 207.277344 " fill-opacity="1" fill-rule="nonzero"/><path fill="#efefef" d="M 230.597656 206.144531 C 230.011719 206.652344 229.410156 207.140625 228.789062 207.59375 C 229.410156 207.144531 230.011719 206.65625 230.597656 206.144531 Z M 230.597656 206.144531 " fill-opacity="1" fill-rule="nonzero"/><path fill="#efefef" d="M 184.808594 157.285156 L 184.792969 157.292969 L 184.804688 157.289062 Z M 184.808594 157.285156 " fill-opacity="1" fill-rule="nonzero"/><path fill="#efefef" d="M 227.570312 208.441406 C 226.746094 208.984375 225.898438 209.484375 225.03125 209.9375 C 225.898438 209.484375 226.746094 208.988281 227.570312 208.441406 Z M 227.570312 208.441406 " fill-opacity="1" fill-rule="nonzero"/><path fill="#efefef" d="M 225.03125 209.9375 C 224.355469 210.292969 223.660156 210.613281 222.96875 210.910156 C 223.660156 210.613281 224.355469 210.292969 225.03125 209.9375 Z M 225.03125 209.9375 " fill-opacity="1" fill-rule="nonzero"/><path fill="#efefef" d="M 221.875 211.355469 C 220.324219 211.949219 218.730469 212.414062 217.113281 212.742188 C 218.730469 212.414062 220.324219 211.949219 221.875 211.355469 Z M 221.875 211.355469 " fill-opacity="1" fill-rule="nonzero"/><path fill="#efefef" d="M 190.082031 162.578125 L 190.089844 162.570312 C 190.089844 162.570312 190.09375 162.566406 190.09375 162.566406 L 190.089844 162.570312 C 190.089844 162.570312 190.089844 162.570312 190.082031 162.578125 Z M 190.082031 162.578125 " fill-opacity="1" fill-rule="nonzero"/><path fill="#efefef" d="M 222.96875 210.914062 C 222.605469 211.066406 222.242188 211.214844 221.875 211.355469 C 222.242188 211.214844 222.605469 211.066406 222.96875 210.914062 Z M 222.96875 210.914062 " fill-opacity="1" fill-rule="nonzero"/><path fill="#efefef" d="M 232.242188 204.640625 C 231.714844 205.167969 231.160156 205.667969 230.605469 206.148438 C 231.160156 205.667969 231.710938 205.167969 232.242188 204.640625 Z M 232.242188 204.640625 " fill-opacity="1" fill-rule="nonzero"/><path fill="#efefef" d="M 217.113281 212.742188 C 216.949219 212.773438 216.789062 212.804688 216.625 212.835938 C 216.789062 212.804688 216.953125 212.773438 217.113281 212.742188 Z M 217.113281 212.742188 " fill-opacity="1" fill-rule="nonzero"/><path fill="#efefef" d="M 284.972656 109.941406 C 270.433594 95.433594 246.78125 95.433594 232.242188 109.941406 L 211.164062 130.980469 L 190.089844 109.941406 C 175.550781 95.433594 151.898438 95.433594 137.359375 109.941406 L 89.921875 157.289062 C 75.382812 171.796875 75.382812 195.40625 89.921875 209.914062 C 104.457031 224.421875 128.109375 224.421875 142.648438 209.914062 L 163.726562 188.878906 L 184.804688 209.914062 C 199.339844 224.421875 222.996094 224.421875 237.53125 209.914062 L 284.972656 162.566406 C 299.507812 148.058594 299.507812 124.449219 284.972656 109.941406 Z M 137.359375 204.640625 C 125.742188 216.242188 106.828125 216.242188 95.210938 204.640625 C 83.585938 193.039062 83.585938 174.167969 95.210938 162.570312 L 126.828125 131.015625 C 125.242188 142.207031 128.753906 153.984375 137.359375 162.570312 L 158.4375 183.609375 Z M 232.242188 204.640625 C 231.714844 205.167969 231.160156 205.667969 230.605469 206.148438 C 230.015625 206.65625 229.417969 207.144531 228.796875 207.597656 C 228.394531 207.894531 227.988281 208.179688 227.570312 208.445312 C 226.746094 208.988281 225.898438 209.492188 225.03125 209.941406 C 224.355469 210.296875 223.660156 210.617188 222.96875 210.914062 C 222.605469 211.066406 222.246094 211.214844 221.875 211.355469 C 220.324219 211.949219 218.730469 212.414062 217.113281 212.742188 C 216.949219 212.773438 216.789062 212.804688 216.625 212.835938 C 207.292969 214.558594 197.289062 211.828125 190.089844 204.640625 L 174.265625 188.851562 L 169.011719 183.605469 L 163.722656 178.324219 L 142.644531 157.289062 C 131.019531 145.6875 131.019531 126.816406 142.644531 115.21875 C 154.265625 103.621094 173.175781 103.621094 184.792969 115.21875 L 200.617188 131.011719 L 205.871094 136.257812 L 211.160156 141.535156 L 232.238281 162.570312 C 243.863281 174.167969 243.863281 193.039062 232.242188 204.640625 Z M 279.683594 157.289062 L 248.0625 188.847656 C 249.648438 177.65625 246.136719 165.878906 237.53125 157.289062 L 216.453125 136.257812 L 237.53125 115.21875 C 249.15625 103.625 268.0625 103.625 279.683594 115.21875 C 291.300781 126.820312 291.300781 145.691406 279.683594 157.289062 Z M 279.683594 157.289062 " fill-opacity="1" fill-rule="nonzero"/><g fill="#304499" fill-opacity="1"><g transform="translate(122.964012, 257.484197)"><g><path d="M 14.148438 -18.898438 L 9.503906 -5.535156 L 4.726562 -18.898438 L 0.214844 -18.898438 L 7.585938 0 L 11.449219 0 L 18.601562 -18.898438 Z M 14.148438 -18.898438 "/></g></g></g><g fill="#304499" fill-opacity="1"><g transform="translate(141.918013, 257.484197)"><g><path d="M 6.238281 -3.78125 L 6.238281 -7.667969 L 12.796875 -7.667969 L 12.796875 -11.367188 L 6.238281 -11.367188 L 6.238281 -15.121094 L 13.5 -15.121094 L 13.5 -18.898438 L 2.160156 -18.898438 L 2.160156 0 L 13.796875 0 L 13.796875 -3.78125 Z M 6.238281 -3.78125 "/></g></g></g><g fill="#304499" fill-opacity="1"><g transform="translate(157.011018, 257.484197)"><g/></g></g><g fill="#304499" fill-opacity="1"><g transform="translate(163.464021, 257.484197)"><g><path d="M 10.828125 0.433594 C 15.496094 0.433594 19.171875 -2.699219 20.035156 -7.371094 L 15.902344 -7.371094 C 15.226562 -4.996094 13.3125 -3.484375 10.828125 -3.484375 C 7.613281 -3.484375 5.210938 -6.019531 5.210938 -9.421875 C 5.210938 -12.824219 7.613281 -15.390625 10.828125 -15.390625 C 13.203125 -15.390625 15.09375 -13.984375 15.875 -11.773438 L 19.953125 -11.773438 C 19.089844 -16.253906 15.417969 -19.304688 10.828125 -19.304688 C 5.265625 -19.304688 1.054688 -15.039062 1.054688 -9.421875 C 1.054688 -3.835938 5.265625 0.433594 10.828125 0.433594 Z M 10.828125 0.433594 "/></g></g></g><g fill="#304499" fill-opacity="1"><g transform="translate(184.281029, 257.484197)"><g><path d="M 13.363281 -18.898438 L 13.363281 -11.609375 L 6.238281 -11.609375 L 6.238281 -18.898438 L 2.160156 -18.898438 L 2.160156 0 L 6.238281 0 L 6.238281 -7.804688 L 13.363281 -7.804688 L 13.363281 0 L 17.441406 0 L 17.441406 -18.898438 Z M 13.363281 -18.898438 "/></g></g></g><g fill="#304499" fill-opacity="1"><g transform="translate(203.910036, 257.484197)"><g><path d="M 14.6875 0 L 19.144531 0 L 11.503906 -18.898438 L 7.640625 -18.898438 L 0.214844 0 L 4.5625 0 L 5.859375 -3.5625 L 13.363281 -3.5625 Z M 9.613281 -13.90625 L 12.097656 -7.128906 L 7.128906 -7.128906 Z M 9.613281 -13.90625 "/></g></g></g><g fill="#304499" fill-opacity="1"><g transform="translate(223.29604, 257.484197)"><g><path d="M 2.160156 0 L 6.238281 0 L 6.238281 -18.898438 L 2.160156 -18.898438 Z M 2.160156 0 "/></g></g></g><g fill="#304499" fill-opacity="1"><g transform="translate(231.720047, 257.484197)"><g><path d="M 14.121094 -18.898438 L 14.121094 -7.371094 L 5.832031 -18.898438 L 2.160156 -18.898438 L 2.160156 0 L 6.15625 0 L 6.15625 -11.800781 L 14.714844 0 L 18.144531 0 L 18.144531 -18.898438 Z M 14.121094 -18.898438 "/></g></g></g><g fill="#00a19a" fill-opacity="1"><g transform="translate(144.959914, 275.584026)"><g><path d="M 5.007812 -3.6875 C 5.5 -4.027344 5.796875 -4.589844 5.796875 -5.1875 C 5.796875 -6.21875 4.898438 -6.988281 3.6875 -6.988281 L 0.800781 -6.988281 L 0.800781 0.0117188 L 3.769531 0.0117188 C 4.988281 0.0117188 5.976562 -0.890625 5.976562 -2.007812 C 5.976562 -2.757812 5.617188 -3.359375 5.007812 -3.6875 Z M 4.328125 -4.957031 C 4.328125 -4.519531 4.019531 -4.207031 3.550781 -4.207031 L 2.28125 -4.207031 L 2.28125 -5.699219 L 3.550781 -5.699219 C 4.019531 -5.699219 4.328125 -5.398438 4.328125 -4.957031 Z M 3.628906 -1.378906 L 2.28125 -1.378906 L 2.28125 -2.949219 L 3.628906 -2.949219 C 4.128906 -2.949219 4.457031 -2.621094 4.457031 -2.167969 C 4.457031 -1.710938 4.128906 -1.378906 3.628906 -1.378906 Z M 3.628906 -1.378906 "/></g></g></g><g fill="#00a19a" fill-opacity="1"><g transform="translate(153.377382, 275.584026)"><g><path d="M 6.628906 -7 L 5.007812 -7 L 3.390625 -4.1875 L 1.78125 -7 L 0.171875 -7 L 2.609375 -2.828125 L 2.609375 0 L 4.160156 0 L 4.160156 -2.820312 Z M 6.628906 -7 "/></g></g></g><g fill="#00a19a" fill-opacity="1"><g transform="translate(162.1647, 275.584026)"><g/></g></g><g fill="#00a19a" fill-opacity="1"><g transform="translate(166.553757, 275.584026)"><g><path d="M 9.367188 0 L 8.289062 -7 L 6.769531 -7 L 4.867188 -2.699219 L 2.96875 -7 L 1.460938 -7 L 0.359375 0 L 1.898438 0 L 2.589844 -4.558594 L 4.679688 -0.0117188 L 5.046875 -0.0117188 L 7.136719 -4.558594 L 7.828125 0 Z M 9.367188 0 "/></g></g></g><g fill="#00a19a" fill-opacity="1"><g transform="translate(178.29991, 275.584026)"><g><path d="M 0.800781 0 L 2.308594 0 L 2.308594 -7 L 0.800781 -7 Z M 0.800781 0 "/></g></g></g><g fill="#00a19a" fill-opacity="1"><g transform="translate(183.418678, 275.584026)"><g><path d="M 3.867188 -3.648438 L 3.867188 -2.488281 L 5.96875 -2.488281 C 5.707031 -1.769531 4.917969 -1.289062 4.019531 -1.289062 C 2.757812 -1.289062 1.929688 -2.1875 1.929688 -3.488281 C 1.929688 -4.796875 2.78125 -5.699219 4.019531 -5.699219 C 4.898438 -5.699219 5.636719 -5.230469 5.9375 -4.480469 L 7.5 -4.480469 C 7.167969 -6.046875 5.730469 -7.148438 3.988281 -7.148438 C 1.917969 -7.148438 0.390625 -5.578125 0.390625 -3.488281 C 0.390625 -1.390625 1.960938 0.160156 4.019531 0.160156 C 6.117188 0.160156 7.589844 -1.460938 7.589844 -3.648438 Z M 3.867188 -3.648438 "/></g></g></g><g fill="#00a19a" fill-opacity="1"><g transform="translate(193.38554, 275.584026)"><g><path d="M 4.949219 -7 L 4.949219 -4.300781 L 2.308594 -4.300781 L 2.308594 -7 L 0.800781 -7 L 0.800781 0 L 2.308594 0 L 2.308594 -2.890625 L 4.949219 -2.890625 L 4.949219 0 L 6.457031 0 L 6.457031 -7 Z M 4.949219 -7 "/></g></g></g><g fill="#00a19a" fill-opacity="1"><g transform="translate(202.652673, 275.584026)"><g><path d="M 5.617188 -7 L 0.210938 -7 L 0.210938 -5.589844 L 2.160156 -5.589844 L 2.160156 0 L 3.667969 0 L 3.667969 -5.589844 L 5.617188 -5.589844 Z M 5.617188 -7 "/></g></g></g><g fill="#00a19a" fill-opacity="1"><g transform="translate(210.49037, 275.584026)"><g><path d="M 6.628906 -7 L 5.007812 -7 L 3.390625 -4.1875 L 1.78125 -7 L 0.171875 -7 L 2.609375 -2.828125 L 2.609375 0 L 4.160156 0 L 4.160156 -2.820312 Z M 6.628906 -7 "/></g></g></g><g fill="#00a19a" fill-opacity="1"><g transform="translate(219.277687, 275.584026)"><g><path d="M 0.601562 -4.359375 L 1.949219 -4.359375 L 1.949219 -7.019531 L 0.601562 -7.019531 Z M 0.601562 -4.359375 "/></g></g></g><g fill="#00a19a" fill-opacity="1"><g transform="translate(223.846666, 275.584026)"><g><path d="M 3.121094 0.140625 C 4.570312 0.140625 5.769531 -0.589844 5.769531 -2.097656 C 5.769531 -3.667969 4.429688 -4 3.371094 -4.269531 C 2.621094 -4.449219 2.019531 -4.597656 2.019531 -5.089844 C 2.019531 -5.546875 2.507812 -5.757812 3 -5.757812 C 3.570312 -5.757812 4.070312 -5.480469 4.070312 -4.867188 L 5.558594 -4.867188 C 5.558594 -6.269531 4.648438 -7.128906 3.039062 -7.128906 C 1.488281 -7.128906 0.5 -6.367188 0.5 -5.027344 C 0.5 -3.519531 1.78125 -3.210938 2.839844 -2.949219 C 3.597656 -2.78125 4.238281 -2.628906 4.238281 -2.078125 C 4.238281 -1.558594 3.679688 -1.257812 3.109375 -1.257812 C 2.488281 -1.257812 1.929688 -1.589844 1.929688 -2.257812 L 0.398438 -2.257812 C 0.398438 -0.761719 1.507812 0.140625 3.121094 0.140625 Z M 3.121094 0.140625 "/></g></g></g></svg>